<svg height="512" viewBox="0 0 58 58" width="512" xmlns="http://www.w3.org/2000/svg"><g id="Page-1" fill="none" fill-rule="evenodd"><g id="036---Final-Destination" fill-rule="nonzero" transform="translate(-1)"><path id="Shape" d="m58.63 26.65c-2.3921107 1.7703901-5.0299443 3.181951-7.83 4.19-.0784363.0311466-.158563.0578555-.24.08-.36.14-.72.26-1.09.38-.92.31-1.86.58-2.81.83-.32.09-.64.17-.97.25-.15.04-.3.08-.45.11-.4.1-.8.19-1.21.28-.0721757.0214037-.1456631.0381054-.22.05-.4.09-.8.17-1.2.25-.34.07-.67.14-1 .2-.47.09-.95.18-1.42.27-.31.06-.63.12-.94.17-.09.02-.18.03-.26.05-.09.02-.17.03-.26.05-.02 0-.05.01-.07.01-1.19.21-2.37.41-3.56.62h-.02c-.25.05-.49.09-.73.13-.13.03-.27.05-.4.08l-.33.06c-.49.09-.98.18-1.46.27h-.02c-.19.04-.39.08-.58.12-.0390411.0115077-.079337.0182237-.12.02-.43.09-.85.18-1.27.27-.3.06-.6.13-.89.2-.41.09-.82.19-1.22.29-.0710467.0119156-.1412066.0286204-.21.05-.48.12-.95.24-1.42.37-1.18.33-2.34.7-3.48 1.12-3.0259473 1.0854449-5.8584948 2.6485789-8.39 4.63-1.1-2.96-3.19-5.42-4.29-8.38s-2.19-5.92-3.29-8.88-1.19-6.42-2.29-9.38c2.52943447-1.9820533 5.3626461-3.542177 8.39-4.62.56-.21 1.11-.4 1.68-.58.55-.18 1.1-.34 1.65-.5.0153542-.00808367.0327178-.0115564.05-.01.57-.17 1.15-.32 1.73-.46.1-.03.21-.05.32-.08.47-.11.94-.22 1.42-.33.23-.05.47-.1.71-.15.35-.07.69-.14 1.04-.21.13-.03.26-.06.39-.08.03-.01.07-.01.1-.02.0326539-.00826854.0663553-.01163868.1-.01.13-.03.27-.06.4-.08.0217823-.01122733.0455742-.01802502.07-.02 1.69-.32 3.4-.61 5.1-.91.86-.15 1.73-.31 2.59-.47.43-.07.87-.16 1.3-.24.62-.12 1.24-.24 1.85-.38.52-.11 1.04-.22 1.55-.35.34-.08.67-.16 1-.24.48-.12.95-.25 1.42-.38.55-.15 1.1-.32 1.64-.49.48-.15.96-.32 1.43-.49 2.7320998-.95989247 5.3169932-2.29609385 7.68-3.97.2408387-.17616806.5500121-.23005474.8362489-.14575212s.5168467.29716659.6237511.57575212c.95 2.56 1.9 5.13 2.84 7.69 1.1 2.96 2.1966667 5.9166667 3.29 8.87 1.02 2.74 2.03 5.48 3.05 8.22.1470017.3950605.0216564.8398341-.31 1.1z" fill="#ecf0f1"/><g fill="#393f4a"><path id="Shape" d="m25.56 17.24c-3.1256556.5526777-6.1996782 1.3655041-9.19 2.43-1.1-2.96-2.1966667-5.92-3.29-8.88.56-.21 1.11-.4 1.68-.58.55-.18 1.1-.34 1.65-.5.0153542-.00808367.0327178-.0115564.05-.01.57-.17 1.15-.32 1.73-.46.1-.03.21-.05.32-.08.47-.11.94-.22 1.42-.33.23-.05.47-.1.71-.15.35-.07.69-.14 1.04-.21.13-.03.26-.06.39-.08.03-.01.07-.01.1-.02.0326539-.00826854.0663553-.01163868.1-.01 1.1 2.96 2.1966667 5.92 3.29 8.88z"/><path id="Shape" d="m32.14 34.98c-.19.04-.39.08-.58.12-.0390411.0115077-.079337.0182237-.12.02-.43.09-.85.18-1.27.27-.3.06-.6.13-.89.2-.41.09-.82.19-1.22.29-.0710467.0119156-.1412066.0286204-.21.05-.48.12-.95.24-1.42.37-1.18.33-2.34.7-3.48 1.12-1.1-2.95-2.1966667-5.9066667-3.29-8.87 2.9918713-1.0619302 6.0654019-1.877971 9.19-2.44 1.1 2.96 2.1966667 5.9166667 3.29 8.87z"/><path id="Shape" d="m44.22 13.08c-2.9948988 1.0631727-6.071854 1.8792348-9.2 2.44-1.09-2.96-2.1866667-5.92-3.29-8.88.62-.12 1.24-.24 1.85-.38.52-.11 1.04-.22 1.55-.35.34-.08.67-.16 1-.24.48-.12.95-.25 1.42-.38.55-.15 1.1-.32 1.64-.49.48-.15.96-.32 1.43-.49.1053811-.0306177.2088897-.06734655.31-.11 1.1 2.96 2.1966667 5.92 3.29 8.88z"/><path id="Shape" d="m50.8 30.84c-.0784363.0311466-.158563.0578555-.24.08-.36.14-.72.26-1.09.38-.92.31-1.86.58-2.81.83-.32.09-.64.17-.97.25-.15.04-.3.08-.45.11-.4.1-.8.19-1.21.28-.0721757.0214037-.1456631.0381054-.22.05-.4.09-.8.17-1.2.25-.34.07-.67.14-1 .2-1.1-2.96-2.1966667-5.92-3.29-8.88 3.1245981-.562029 6.1981287-1.3780698 9.19-2.44 1.09 2.96 2.1866667 5.9233333 3.29 8.89z"/><path id="Shape" d="m19.66 28.55c-3.0273539 1.077823-5.8605655 2.6379467-8.39 4.62-1.1-2.96-2.19666667-5.92-3.29-8.88 2.5294345-1.9820533 5.3626461-3.542177 8.39-4.62 1.1 2.96 2.1966667 5.92 3.29 8.88z"/><path id="Shape" d="m38.32 24.39c-3.14.61-6.33 1.1-9.47 1.72-1.1-2.96-2.1966667-5.9166667-3.29-8.87 3.14-.62 6.32-1.11 9.46-1.72 1.1 2.96 2.2 5.9166667 3.3 8.87z"/><path id="Shape" d="m55.89 17.33c-2.5258826 1.9818777-5.3557788 3.5420353-8.38 4.62-1.1-2.96-2.1966667-5.9166667-3.29-8.87 3.0206038-1.0859829 5.8492682-2.6454613 8.38-4.62 1.1 2.96 2.1966667 5.9166667 3.29 8.87z"/></g><path id="Shape" d="m18.065 57.2568-.6887.2552c-1.0355263.3836363-2.1860142-.1446032-2.57-1.18l-13.7731-37.1671c-.14180548-.3829359-.02217752-.813645.2968-1.0686l3.3608-2.6863 14.5546 39.2765c.3837943 1.0357266-.1446837 2.186478-1.1804 2.5703z" fill="#cf976a"/></g></g></svg>